<?xml version="1.0" encoding="UTF-8"?>
<svg id="Layer_1" data-name="Layer 1" xmlns="http://www.w3.org/2000/svg" width="150" height="100" version="1.1" viewBox="0 0 150 100">
  <defs>
    <style>
      .cls-1 {
        isolation: isolate;
      }

      .cls-2 {
        fill: #75797b;
        stroke-width: 0px;
      }
    </style>
  </defs>
  <g class="cls-1">
    <path class="cls-2" d="M82.6,32.4c-1.3.3-2.3.8-3.2,1.7-1.3,1.3-1.9,3.2-1.8,5.4,0,2.1.6,3.5,1.8,4.6,1.2,1.3,2.8,1.9,4.8,1.9,3.4,0,5.8-2,6.4-5.3.1-.6.1-2.6,0-3.2-.5-2.6-2-4.4-4.5-5.1-.8-.2-2.6-.3-3.6,0ZM85.1,35.3c.5.1,1,.5,1.3,1,1.1,1.6.9,4.8-.3,6.1s-.5.4-.8.5c-.4.2-.5.2-1.1.2s-.7,0-1.2-.3c-1.1-.5-1.7-1.7-1.7-3.5-.1-2.3.8-3.9,2.4-4.2.4,0,1.1,0,1.5,0Z"/>
    <path class="cls-2" d="M142.1,32.3c0,0-.4,0-.7.2-1.5.3-2.6,1.2-3,2.5-.2.5-.2.7-.2,1.5s0,.9.3,1.5c.4.7.9,1.2,1.7,1.6.7.3,1.3.5,2.9.9,2.1.5,2.6.8,2.6,1.6,0,.6-.4.9-1.3,1.1-1.4.2-3-.5-3.9-1.7l-.2-.3-1.3.8c-.7.4-1.3.8-1.3.9,0,.1.6.9,1,1.3.8.8,1.6,1.2,2.8,1.6.7.2.8.2,2.3.2,1.3,0,1.6,0,2.2-.2,1.8-.5,3-1.6,3.3-3,.3-1.4,0-2.7-1-3.5-.7-.7-1.7-1.1-3.9-1.6-1.9-.5-2.5-.8-2.5-1.6s.5-.9,1.6-.9c1,0,2,.5,2.9,1.3l.4.3,1.2-1,1.2-1-.2-.2c-.6-.7-1.6-1.4-2.4-1.8-.9-.4-1.6-.5-2.8-.6-.6,0-1.2,0-1.3,0Z"/>
    <path class="cls-2" d="M.9,39.1v6.7h3.6v-4.9h3.9v-2.8h-3.9v-1.3s0-1.3,0-1.3h5.6v-3H.9v6.7Z"/>
    <path class="cls-2" d="M14.2,39.1v6.7h3.6v-13.4h-3.6v6.7Z"/>
    <path class="cls-2" d="M22.9,39.1v6.7h3.3v-3.7c0-2,0-3.7,0-3.7s1.2,1.7,2.6,3.7l2.5,3.7h3.4v-13.4h-3.3v3.8s0,3.8,0,3.8l-2.5-3.8-2.5-3.8h-3.6v6.7Z"/>
    <path class="cls-2" d="M39.9,39.1v6.7h9.9v-2.9h-3.1s-3.1,0-3.1,0v-2.5h4.2v-2.8h-4.2v-2.2h5.9v-3h-9.6v6.7Z"/>
    <path class="cls-2" d="M62.2,39.1v6.7h3.6v-5.4h4.5v5.4h3.6v-13.4h-3.6v4.9h-4.5v-4.9h-3.6v6.7Z"/>
    <path class="cls-2" d="M93.8,34v1.5h3.9v10.3h3.6v-10.3h3.9v-3h-11.3v1.5Z"/>
    <path class="cls-2" d="M109.6,39.1v6.7h9.9v-2.9h-6.3v-2.5h4.2v-2.8h-4.2v-2.2h5.9v-3h-9.6v6.7Z"/>
    <path class="cls-2" d="M124.7,39.1v6.7h9.3v-1.4s0-1.4,0-1.4h-2.8s-2.8,0-2.8,0v-5.2s0-5.2,0-5.2h-3.6v6.7Z"/>
    <path class="cls-2" d="M53.3,54c-2.4.5-3.7,2.1-3.5,4.4,0,.5,0,.8.3,1.2.6,1.3,1.6,1.8,4.5,2.6,1.6.4,2.1.6,2.4.9.6.6.4,1.4-.4,1.7-1.4.5-3.3-.1-4.3-1.4-.2-.3-.3-.4-.4-.4,0,0-2.4,1.5-2.5,1.6s.6.9,1,1.3c.8.8,1.6,1.3,2.7,1.6.9.3,2.8.3,3.9.2,1.9-.3,3.2-1.3,3.7-2.6.2-.4.2-.6.2-1.4,0-1.2-.1-1.6-.8-2.3-.8-.9-1.6-1.2-4-1.9-.8-.2-1.7-.5-1.9-.6-.4-.2-.8-.6-.8-.8,0-.5,0-.8.5-1,.4-.2,1.3-.2,1.8,0,.7.2,1.6.7,2.2,1.3.1.2.2.2.3.2.7-.5,2.3-1.9,2.3-2s-.3-.3-.6-.7c-1.4-1.3-2.9-1.9-5-1.9-.5,0-1.2,0-1.5.1Z"/>
    <path class="cls-2" d="M69.6,54.1c-3.2.7-5.1,3.2-5.1,6.8s1.1,4.8,3,6c.6.4,1.6.7,2.4.8.7.1,2.4,0,3-.1,3.2-.9,4.9-3.5,4.7-7.2-.1-2-.7-3.4-1.9-4.6-.8-.8-1.6-1.3-2.9-1.6-.7-.2-2.6-.2-3.3,0ZM72.1,57.1c.4.2,1.1.7,1.3,1.1.3.6.5,1.3.6,2.3.1,2.6-.9,4.2-2.6,4.4-.6,0-1.3-.1-1.7-.4-.9-.6-1.5-1.9-1.5-3.6s.8-3.5,2.2-3.9c.5-.1,1.2-.1,1.8,0Z"/>
    <path class="cls-2" d="M115.6,54c-1.9.3-3.3,1.5-3.6,3.1-.1.6,0,1.8.2,2.4.2.6,1,1.4,1.7,1.7.5.3,1.7.7,3.2,1.1,1.8.5,2.3.8,2.3,1.5s-.6,1.1-1.9,1.1c-1.3,0-2.6-.7-3.4-1.8,0-.1-.2-.2-.2-.2-.2.1-2.6,1.6-2.6,1.6,0,.1.6.8,1,1.2.8.8,1.6,1.3,2.8,1.6.6.2.8.2,2.2.2,1.4,0,1.6,0,2.2-.2,1.4-.4,2.4-1.1,3-2.2s.5-1.3.4-2.1c0-1.5-1-2.6-2.7-3.2-.3-.1-1.3-.4-2.1-.6-1.6-.4-2.1-.6-2.4-1-.4-.5-.3-1.1.3-1.4.3-.1.5-.2,1.1-.1.7,0,.8,0,1.4.4.5.2.8.5,1.2.8.5.5.5.5.7.3,0,0,.6-.5,1.2-1l1-.8-.2-.2c-.4-.5-1.5-1.4-2.3-1.8-.9-.4-1.6-.6-2.9-.6-.7,0-1.4,0-1.6,0Z"/>
    <path class="cls-2" d="M127.8,54.2c-1.1.3-1.7,1.3-1.4,2.4.5,1.7,2.9,1.9,3.6.2.2-.4.2-1.1,0-1.6-.4-.8-1.3-1.3-2.2-1.1ZM128.7,54.5c1.4.4,1.5,2.5.1,3.1-.5.2-1.4,0-1.8-.4-.8-.8-.4-2.4.7-2.7.5-.1.5-.1.9,0Z"/>
    <path class="cls-2" d="M127.5,56v1.1h.2c.2,0,.2,0,.2-.4,0-.3,0-.4.2-.4.1,0,.2,0,.4.4.2.4.3.4.4.4h.2l-.2-.4-.2-.4h.2c.2-.3.2-.6.1-.9,0-.2-.5-.3-1-.3h-.5v1.1ZM128.6,55.4c.2.2,0,.5-.4.5s-.2,0-.2-.3,0-.3.3-.3.3,0,.4,0Z"/>
    <path class="cls-2" d="M20.2,60.8v6.7h3.6v-4.6h1l1.3,2.3,1.3,2.3h1.9c1.7,0,1.9,0,1.9,0,0-.1-2.1-3.9-2.6-4.7v-.2c-.1,0,.4-.3.4-.3,1.4-.7,2-1.9,2-3.7s-.7-3-2.1-3.7c-1.1-.5-1.4-.6-5.2-.6h-3.4s0,6.6,0,6.6ZM26.3,57.2c.7.2,1.1.6,1.1,1.4,0,1.2-.5,1.5-2.5,1.5h-1.1v-3h1.1c.6,0,1.3,0,1.5,0Z"/>
    <path class="cls-2" d="M35.6,60.8v6.7h9.8v-2.9h-6.3v-1.2s0-1.2,0-1.2h2.1s2.1,0,2.1,0v-2.8h-4.2v-2.2h5.9v-3h-9.5v6.7Z"/>
    <path class="cls-2" d="M82.1,60.8v6.7h3.6v-4.6h.5s.5,0,.5,0l1.3,2.3,1.3,2.3h3.9l-.2-.3c-.3-.6-2.6-4.8-2.6-4.8s.2-.2.5-.3c1-.5,1.6-1.2,1.9-2.3.1-.6.2-2,0-2.6-.3-1.4-1.3-2.4-3.1-2.8-.6-.2-.9-.2-4.1-.2h-3.5s0,6.6,0,6.6ZM88.6,57.3c.5.3.7.6.7,1.3s-.2,1-.7,1.3c-.3.2-.4.2-1.7.2h-1.3s0-1.5,0-1.5v-1.5h1.3c1.2,0,1.3,0,1.7.2Z"/>
    <path class="cls-2" d="M96.7,55.7v1.5h3.9v10.3h3.6v-10.3h3.9v-3h-11.3v1.5Z"/>
    <path class="cls-2" d="M5.6,57.5v2.3s-2.4,0-2.4,0H.9s0,1,0,1v1h2.3s2.3,0,2.3,0v2.3s0,2.3,0,2.3h2v-4.7h2.3s2.3,0,2.3,0v-1s0-1,0-1h-2.3s-2.3,0-2.3,0v-4.6h-2v2.3Z"/>
  </g>
</svg>