<?xml version="1.0" encoding="utf-8"?>
<!-- Generator: Adobe Illustrator 27.1.1, SVG Export Plug-In . SVG Version: 6.00 Build 0)  -->
<svg version="1.1" id="Layer_1" xmlns="http://www.w3.org/2000/svg" xmlns:xlink="http://www.w3.org/1999/xlink" x="0px" y="0px"
	 width="180px" height="60px" viewBox="0 0 180 60" style="enable-background:new 0 0 180 60;" xml:space="preserve">
<style type="text/css">
	.st0{fill:#886F53;}
	.st1{fill:#FFFFFF;}
</style>
<g>
	<rect x="0" y="0.5" class="st0" width="180.1" height="59"/>
	<g>
		<path class="st1" d="M46.8,40.8C46.8,40.8,46.8,40.8,46.8,40.8l0.1-0.1c0-1,0-1,0-1.2c0-0.1-0.1-0.3-0.3-0.3l0,0h-0.2
			c-0.1,0-0.1-0.1-0.1-0.1s0-0.1,0.1-0.1c0.4,0,1,0,1,0c0,0,0.8,0,1.1,0c0.1,0,0.1,0,0.1,0.1c0,0.1,0,0.1-0.1,0.1h-0.2
			c-0.1,0-0.2,0.1-0.2,0.3c0,0.2,0,0.3,0,1.2v1c0,0.6,0,1,0,1.2c0,0.2,0.1,0.3,0.3,0.4c0.1,0,0.2,0,0.2,0c0.1,0,0.1,0,0.1,0.1
			s-0.1,0.1-0.1,0.1c-0.4,0-1.1,0-1.2,0c-0.1,0-0.6,0-0.9,0c-0.1,0-0.1-0.1-0.1-0.1s0-0.1,0.1-0.1c0.1,0,0.1,0,0.1,0
			c0.1,0,0.2-0.1,0.2-0.4c0-0.4,0.1-0.8,0.1-1.2v-0.4c0,0,0-0.1-0.1-0.1l0,0H45h-0.1l0,0v0.7c0,0.4,0,0.7,0,1c0,0.1,0.1,0.3,0.3,0.3
			c0.1,0,0.2,0,0.2,0s0.1,0,0.1,0.1s0,0.1-0.1,0.1c-0.4,0-1.2,0-1.2,0h-1c-0.1,0-0.1,0-0.1-0.1s0-0.1,0.1-0.1h0.1
			c0.1,0,0.2-0.1,0.2-0.4c0-0.2,0-0.7,0-1.2v-1c0-1,0-1,0-1.2c0-0.2-0.1-0.3-0.3-0.4h-0.1c-0.1,0-0.1-0.1-0.1-0.1s0.1-0.1,0.1-0.1
			c0.4,0,0.9,0,1,0c0.2,0,0.7,0,1,0c0.1,0,0.1,0.1,0.1,0.1c0,0.1,0,0.1-0.1,0.1c-0.1,0-0.1,0-0.2,0c-0.1,0-0.2,0.1-0.2,0.4
			c0,0.1,0,0.4,0,1.2v0.1c0,0.1,0,0.1,0.1,0.1L46.8,40.8z"/>
		<path class="st1" d="M55.9,41.3c0-0.9-0.3-2.1-1.5-2.1c-0.5,0-1.1,0.3-1.1,1.7c0,1.1,0.4,2.2,1.5,2.2C55.2,43.2,55.9,43,55.9,41.3
			 M52,41.2c0-1.2,0.8-2.4,2.7-2.4c1.5,0,2.6,1,2.6,2.2c0,1.4-1,2.4-2.6,2.4C52.8,43.5,52,42.3,52,41.2"/>
		<path class="st1" d="M63.2,41.7c0,0.4,0,1,0,1.2c0,0.1,0.1,0.3,0.2,0.3h0.2c0.1,0,0.1,0.1,0.1,0.1c0,0.1,0,0.1-0.1,0.1
			c-0.4,0-1.1,0-1.2,0h-1c-0.1,0-0.1,0-0.1-0.1s0.1-0.1,0.1-0.1s0.1,0,0.2,0c0.1,0,0.1-0.1,0.2-0.3c0-0.2,0-0.7,0-1.2v-2.3
			c-0.2,0-0.7,0-1,0c-0.3,0-0.4,0.1-0.5,0.4c0,0.1,0,0.1-0.1,0.1c0,0.1,0,0.1-0.1,0.1c-0.1,0-0.1-0.1-0.1-0.1c0-0.3,0.1-0.6,0.1-0.9
			c0-0.1,0.1-0.1,0.1-0.1s0.1,0,0.1,0.1c0.2,0,0.4,0.1,0.7,0.1h2.7c0.1,0,0.2,0,0.4,0c0.1,0,0.1,0,0.2,0c0.1,0,0.1,0,0.1,0.2
			c0,0.1-0.1,0.7-0.1,0.8s-0.1,0.1-0.1,0.1c-0.1,0-0.1-0.1-0.1-0.1c0-0.1,0-0.1,0-0.1c0-0.2-0.1-0.3-0.4-0.4c-0.2,0-0.5-0.1-1-0.1
			L63.2,41.7z"/>
		<path class="st1" d="M68.7,40.7c0-1,0-1.1,0-1.3c0-0.1-0.1-0.2-0.2-0.3c-0.1,0-0.1,0-0.2,0S68.2,39,68.2,39c0-0.1,0-0.1,0.1-0.1
			c0.4,0,0.7,0,1,0h1.8c0.1,0,0.2,0,0.4,0h0.1c0,0,0.1,0,0.1,0.1s-0.1,0.2-0.1,0.3c0,0.1,0,0.3,0,0.7c0,0.1,0,0.1-0.1,0.1
			s-0.1,0-0.1-0.1c0-0.1,0-0.1-0.1-0.2c-0.1-0.1-0.1-0.2-0.4-0.2c-0.2,0-0.7,0-1,0c0,0-0.1,0-0.1,0.1v1.2c0,0.1,0,0.1,0.1,0.1
			c0.1,0,0.6,0,0.8,0c0.4,0,0.4,0,0.5-0.1c0-0.1,0.1-0.1,0.1-0.1l0.1,0.1c0,0-0.1,0.3-0.1,0.5c0,0.1,0,0.4,0,0.5s0,0.1-0.1,0.1
			s-0.1,0-0.1-0.1s0-0.1,0-0.1c0-0.2-0.1-0.3-0.4-0.3c-0.2,0-0.7,0-0.9,0c0,0-0.1,0-0.1,0.1v0.4c0,0.2,0,0.5,0,0.7
			c0,0.4,0.1,0.5,0.8,0.5c0.2,0,0.4,0,0.6-0.1c0.1-0.1,0.2-0.2,0.3-0.5c0-0.1,0.1-0.1,0.1-0.1c0.1,0,0.1,0.1,0.1,0.1
			c0,0.3,0,0.6-0.1,0.9c-0.1,0.1-0.1,0.1-0.3,0.1c-1,0-1.3,0-2,0c-0.3,0-0.6,0-1,0c-0.1,0-0.1-0.1-0.1-0.1c0-0.1,0-0.1,0.1-0.1
			c0.1,0,0.1,0,0.1,0c0.2-0.1,0.2-0.3,0.2-0.7c0-0.2,0-0.6,0-0.9L68.7,40.7z"/>
		<path class="st1" d="M76.8,41.7c-0.1,0.4,0,0.7,0.1,1.1c0.1,0.1,0.2,0.1,0.7,0.1c0.2,0,0.4,0,0.7-0.1c0.1-0.1,0.3-0.2,0.4-0.5
			c0-0.1,0.1-0.1,0.1-0.1s0.1,0.1,0.1,0.1c0,0.3-0.1,0.6-0.1,1c-0.1,0.1-0.1,0.1-0.3,0.1c-1,0-1.5,0-2.1,0c-0.3,0-0.6,0-1,0
			c-0.1,0-0.1,0-0.1-0.1s0-0.1,0.1-0.1h0.1c0.2-0.1,0.3-0.1,0.3-0.7c0-0.2,0-0.6,0-0.9v-1c0-1,0-1,0-1.2c0-0.2-0.1-0.3-0.2-0.3
			c-0.1,0-0.1,0-0.2,0s-0.1,0-0.1-0.1s0.1-0.1,0.1-0.1c0.4,0,0.7,0,1,0c0,0,0.8,0,1,0c0.1,0,0.1,0,0.1,0.1l-0.1,0.1
			c-0.1,0-0.1,0-0.2,0c-0.1,0-0.2,0.1-0.2,0.4s0,0.3,0,1.3L76.8,41.7z"/>
		<path class="st1" d="M87.1,41C87.1,41,87.1,41.1,87.1,41c0.2,0.1,0.4,0.1,0.6,0.1s0.3,0,0.4-0.1c0.1-0.2,0.2-0.4,0.2-0.7
			c0.1-0.5-0.3-1-0.8-1h-0.1c-0.1,0-0.1,0-0.2,0c0,0-0.1,0-0.1,0.1L87.1,41L87.1,41z M86,40.7c0-1,0-1,0-1.2c0-0.2-0.1-0.4-0.2-0.4
			s-0.1,0-0.2,0S85.5,39,85.5,39s0-0.1,0.1-0.1c0.2,0,0.9,0,1,0s0.7,0,1,0c0.4,0,0.9,0,1.3,0.2c0.4,0.1,0.6,0.5,0.6,1
			c-0.1,0.5-0.4,1-0.8,1.2c0.4,0.5,0.7,1.1,1.2,1.5c0.3,0.4,0.4,0.4,0.7,0.5c0.1,0,0.1,0,0.1,0c0.1,0,0.1,0.1,0.1,0.1
			s-0.1,0.1-0.1,0.1h-0.5c-0.4,0.1-0.9,0-1.2-0.2c-0.2-0.2-0.4-0.4-0.6-0.7c-0.3-0.5-0.4-0.7-0.5-0.9l-0.1-0.1h-0.4
			c0,0-0.1,0-0.1,0.1l0,0V42c0,0.4,0,0.7,0,0.9s0.1,0.3,0.2,0.3c0.1,0,0.2,0,0.3,0.1c0.1,0,0.1,0.1,0.1,0.1s0,0.1-0.1,0.1
			c-0.4,0-1.2,0-1.2,0s-0.7,0-0.9,0c-0.1,0-0.1-0.1-0.1-0.1c0-0.1,0.1-0.1,0.1-0.1s0.1,0,0.2,0s0.1-0.1,0.2-0.4c0-0.2,0-0.7,0-1.2
			L86,40.7z"/>
		<path class="st1" d="M93.8,40.7c0-1,0-1.1,0-1.3c0-0.1-0.1-0.2-0.2-0.3c-0.1,0-0.1,0-0.1,0c-0.1,0-0.1-0.1-0.1-0.1
			c0-0.1,0-0.1,0.1-0.1c0.4,0,0.7,0,1,0h1.8c0.1,0,0.2,0,0.4,0h0.1c0,0,0.1,0,0.1,0.1s-0.1,0.2-0.1,0.3c0,0.1,0,0.3,0,0.7
			c0,0.1,0,0.1-0.1,0.1c-0.1,0-0.1,0-0.1-0.1c0-0.1,0-0.1,0-0.2c0-0.1-0.1-0.2-0.4-0.2c-0.2,0-0.7,0-1,0c0,0-0.1,0-0.1,0.1v1.2
			c0,0.1,0,0.1,0.1,0.1c0.2,0,0.6,0,0.9,0c0.4,0,0.4,0,0.5-0.1c0-0.1,0.1-0.1,0.1-0.1l0.1,0.1c0,0-0.1,0.3-0.1,0.5
			c0,0.1,0,0.4,0,0.5s0,0.1-0.1,0.1c-0.1,0-0.1,0-0.1-0.1s0-0.1,0-0.1c0-0.2-0.1-0.3-0.4-0.3c-0.2,0-0.7,0-0.9,0c0,0-0.1,0-0.1,0.1
			v0.4c0,0.2,0,0.5,0,0.7c0,0.4,0.1,0.5,0.8,0.5c0.2,0,0.4,0,0.6-0.1c0.1-0.1,0.2-0.2,0.3-0.5c0-0.1,0.1-0.1,0.1-0.1
			c0.1,0,0.1,0.1,0.1,0.1c0,0.3-0.1,0.6-0.1,0.9c-0.1,0.1-0.1,0.1-0.3,0.1c-1,0-1.4,0-2,0c-0.3,0-0.6,0-1,0c-0.1,0-0.1-0.1-0.1-0.1
			c0-0.1,0-0.1,0.1-0.1c0.1,0,0.1,0,0.1,0c0.2-0.1,0.2-0.3,0.2-0.7c0-0.2,0-0.6,0-0.9L93.8,40.7z"/>
		<path class="st1" d="M100.4,39.6c-0.1-0.3-0.1-0.4-0.4-0.4c-0.1,0-0.1,0-0.1,0c-0.1,0-0.1-0.1-0.1-0.1c0-0.1,0.1-0.1,0.1-0.1
			c0.4,0,0.8,0,1,0c0.1,0,0.7,0,1,0c0.1,0,0.1,0,0.1,0.1c0,0.1-0.1,0.1-0.1,0.1h-0.1c-0.1,0-0.1,0.1-0.1,0.1c0,0.1,0.1,0.4,0.1,0.5
			s0.5,1.5,0.7,2l1.1-2.6c0.1-0.1,0.1-0.2,0.1-0.2c0.1,0,0.1,0.1,0.2,0.3l1.2,2.6c0.2-0.5,0.4-1.4,0.7-2c0.1-0.1,0.1-0.4,0.1-0.5
			c0-0.1-0.1-0.2-0.4-0.2c-0.1,0-0.1,0-0.1-0.1c0,0,0-0.1,0.1-0.1c0.4,0,0.7,0,0.8,0s0.5,0,0.7,0c0.1,0,0.1,0,0.1,0.1s0,0.1-0.1,0.1
			c-0.1,0-0.1,0-0.2,0c-0.1,0-0.3,0.1-0.4,0.7c-0.3,0.7-0.8,2.2-1.3,3.4c-0.1,0.2-0.1,0.4-0.3,0.4c-0.1,0-0.1-0.1-0.2-0.3l-1.2-2.4
			c-0.3,0.7-0.7,1.8-1.1,2.4c-0.1,0.2-0.2,0.4-0.3,0.4c-0.1,0-0.1-0.1-0.2-0.4L100.4,39.6z"/>
		<path class="st1" d="M111.8,41.8L111.8,41.8l-0.5-1.2l0,0l-0.5,1.2l0,0H111.8z M110.5,42.3C110.5,42.3,110.4,42.4,110.5,42.3
			l-0.2,0.4c-0.1,0.1-0.1,0.2-0.1,0.4c0,0.2,0.3,0.2,0.4,0.2c0.1,0,0.1,0,0.1,0.1s0,0.1-0.1,0.1c-0.3,0-0.5,0-0.9,0
			c-0.1,0-0.4,0-0.7,0c-0.1,0-0.1,0-0.1-0.1s0-0.1,0.1-0.1c0.3-0.1,0.4-0.1,0.7-0.5l1.7-3.5c0.1-0.3,0.2-0.4,0.3-0.4
			s0.1,0.1,0.2,0.3c0.1,0.4,1.2,2.6,1.6,3.5c0.2,0.4,0.3,0.6,0.6,0.7h0.1c0.1,0,0.1,0,0.1,0.1c0,0.1-0.1,0.1-0.1,0.1h-1.8
			c-0.1,0-0.1,0-0.1-0.1l0.1-0.1c0.1,0,0.1,0,0.1-0.1l-0.4-0.8c0,0,0,0-0.1-0.1L110.5,42.3z"/>
		<path class="st1" d="M118.8,41C118.8,41,118.8,41.1,118.8,41c0.2,0.1,0.4,0.1,0.6,0.1c0.1,0,0.3,0,0.4-0.1
			c0.1-0.2,0.2-0.4,0.2-0.7c0.1-0.5-0.3-1-0.8-1h-0.1c-0.1,0-0.1,0-0.2,0c0,0-0.1,0-0.1,0.1V41z M117.6,40.7c0-1,0-1,0-1.2
			c0-0.2-0.1-0.4-0.2-0.4s-0.1,0-0.2,0c-0.1,0-0.1-0.1-0.1-0.1s0-0.1,0.1-0.1c0.2,0,0.9,0,1,0c0.1,0,0.7,0,1,0c0.4,0,0.9,0,1.3,0.2
			c0.4,0.1,0.6,0.5,0.6,1c-0.1,0.5-0.4,1-0.8,1.2c0.4,0.5,0.7,1.1,1.2,1.5c0.3,0.4,0.4,0.4,0.7,0.5c0.1,0,0.1,0,0.1,0
			c0.1,0,0.1,0.1,0.1,0.1s-0.1,0.1-0.1,0.1h-0.5c-0.4,0.1-0.9,0-1.2-0.2c-0.2-0.2-0.4-0.4-0.6-0.7c-0.3-0.5-0.4-0.7-0.5-0.9
			l-0.1-0.1h-0.4c0,0-0.1,0-0.1,0.1l0,0V42c0,0.4,0,0.7,0,0.9s0.1,0.3,0.2,0.3c0.1,0,0.2,0,0.3,0.1c0.1,0,0.1,0.1,0.1,0.1
			s0,0.1-0.1,0.1c-0.4,0-1.2,0-1.2,0c-0.1,0-0.7,0-0.9,0c-0.1,0-0.1-0.1-0.1-0.1c0-0.1,0.1-0.1,0.1-0.1c0.1,0,0.1,0,0.2,0
			c0.1,0,0.1-0.1,0.2-0.4c0-0.2,0-0.7,0-1.2L117.6,40.7z"/>
		<path class="st1" d="M126.6,41.3c0,0.7,0,1,0,1.1c0,0.3,0.1,0.4,0.1,0.4c0.1,0.1,0.4,0.2,0.6,0.2c0.4,0.1,0.7-0.1,1-0.4
			c0.3-0.4,0.4-0.9,0.4-1.3c0-0.5-0.1-1-0.4-1.3c-0.3-0.4-0.8-0.7-1.3-0.7c-0.1,0-0.2,0-0.3,0.1c-0.1,0.1-0.1,0.1-0.1,1.2
			L126.6,41.3z M125.4,40.7c0-0.9,0-1,0-1.2c0-0.2,0-0.4-0.3-0.4h-0.2c-0.1,0-0.1-0.1-0.1-0.1s0-0.1,0.1-0.1c0.1,0,0.7,0,1,0
			c0.2,0,0.4,0,1,0c1.1,0,1.9,0.1,2.4,0.7c0.4,0.4,0.6,1,0.6,1.5c0,0.6-0.2,1.2-0.7,1.6c-0.3,0.3-0.8,0.7-2.1,0.7
			c-0.4,0-1-0.1-1.2-0.1c-0.2,0-0.7,0-1,0c-0.1,0-0.1-0.1-0.1-0.1l0.1-0.1c0.1,0,0.1,0,0.1,0c0.3,0,0.3-0.4,0.3-1.5L125.4,40.7
			L125.4,40.7z"/>
		<path class="st1" d="M133.7,43.4c-0.1-0.1-0.1-0.1-0.1-0.2c0-0.3,0-0.6,0-1c0-0.1,0.1-0.1,0.1-0.1s0.1,0,0.1,0.1
			c0,0.1,0,0.1,0,0.1c0.1,0.5,0.6,0.9,1.1,0.8c0.6,0,0.7-0.3,0.7-0.5c0-0.2-0.1-0.4-0.6-0.8l-0.4-0.2c-0.7-0.5-1-0.9-1-1.5
			c0-0.7,0.6-1.2,1.6-1.2c0.2,0,0.5,0,0.7,0.1c0.1,0,0.2,0.1,0.3,0.1s0.1,0,0.1,0.1c0,0.2,0,0.3,0,0.9c0,0.1,0,0.1-0.1,0.1
			s-0.1,0-0.1-0.1c-0.1-0.4-0.4-0.8-0.9-0.7h-0.1c-0.5,0-0.7,0.3-0.7,0.5c0,0.2,0.1,0.4,0.4,0.7l0.4,0.2c0.9,0.6,1.1,0.9,1.1,1.5
			c0,0.5-0.2,1-0.7,1.2c-0.4,0.1-0.7,0.2-1.1,0.2C134.4,43.5,134.1,43.4,133.7,43.4"/>
		<path class="st1" d="M54.3,23.8v-4.5h2.5c1.6,0,2.7,0.8,2.7,2.2v0.1c0,1.2-1,2.2-2.6,2.2H54.3z M51.1,31.2h3.2v-4.4h2.4
			c3.3,0,6-1.8,6-5.2v-0.1c0-3-2.1-5.1-5.6-5.1h-6.1V31.2L51.1,31.2z M32.1,31.2h3.2V16.4h-3.2V31.2z"/>
		<path class="st1" d="M80.6,22.1L80.6,22.1c0.1-1.2-0.4-2.4-1.2-3.2c-0.9-0.9-2.3-1.4-4-1.4h-6.2v13.6h3.2v-4.3h2.1
			c1,1.4,1.9,2.8,2.8,4.2l0.1,0.1h3.7l-3.3-4.8C79.6,25.7,80.7,23.9,80.6,22.1z M77.5,22.3L77.5,22.3c0,1.2-0.9,1.9-2.3,1.9h-3v-3.8
			h3C76.6,20.4,77.5,21,77.5,22.3z"/>
		<polygon class="st1" points="90,25.7 96.2,25.7 96.2,22.9 90,22.9 90,20.4 97.1,20.4 97.1,17.6 86.8,17.6 86.8,31.2 97.2,31.2 
			97.2,28.3 90,28.3 		"/>
		<polygon class="st1" points="103.3,31.2 106.5,31.2 106.5,26 112.8,26 112.8,23.1 106.5,23.1 106.5,20.5 113.7,20.5 113.7,17.6 
			103.3,17.6 		"/>
		<path class="st1" d="M144.7,26.3c1.8-0.7,2.9-2.4,2.8-4.2l0,0c0.1-1.2-0.4-2.3-1.2-3.2c-0.9-0.9-2.3-1.4-4-1.4h-6.2v13.5h3.2v-4.3
			h2.1c1,1.4,1.9,2.8,2.8,4.2l0.1,0.1h3.7L144.7,26.3z M144.4,22.3L144.4,22.3c0,1.2-0.9,1.9-2.3,1.9h-3v-3.8h3
			C143.6,20.4,144.4,21,144.4,22.3L144.4,22.3z"/>
		<polygon class="st1" points="122.8,25.7 129,25.7 129,22.9 122.8,22.9 122.8,20.4 129.9,20.4 129.9,17.6 119.6,17.6 119.6,31.2 
			130,31.2 130,28.3 122.8,28.3 		"/>
	</g>
</g>
</svg>
