<?xml version="1.0" encoding="UTF-8"?>
<svg id="Layer_1" data-name="Layer 1" xmlns="http://www.w3.org/2000/svg" width="100" height="100" version="1.1" viewBox="0 0 100 100">
  <defs>
    <style>
      .cls-1 {
        fill: #fff;
      }

      .cls-1, .cls-2 {
        stroke-width: 0px;
      }

      .cls-2 {
        fill: #a71d36;
      }
    </style>
  </defs>
  <path class="cls-2" d="M50,2.3C23.7,2.3,2.3,23.7,2.3,50s21.4,47.7,47.7,47.7,47.7-21.4,47.7-47.7S76.3,2.3,50,2.3Z"/>
  <g>
    <path class="cls-1" d="M67.9,50.8c-.3-.2-.6-.3-1.1-.5.3-.2.6-.3,1.1-.5,4.6-2.3,6.9-6.1,5.5-10.6-.6.8-1.5,1.2-2.6,1.4.5,2.1-.3,4.4-3.4,6.3-2,1.2-5.4,2-8.1,2.4-.8.2-1.4.2-2,.2v1.2c.6,0,1.2.2,2,.2,2.9.5,6.1,1.4,8.1,2.4,4.1,2.4,4.1,5.7,2.6,8.3s-4.6,4.3-8.6,1.8c-2-1.2-4.4-3.7-6.1-6.1-.3-.5-.8-.9-1.1-1.4-.5.3-.9.6-1.4.8.3.6.6,1.2.8,1.8,1.1,2.6,2,6,2,8.3,0,4.9-2.8,6.4-5.8,6.4s-6-1.8-6-6.4.9-5.7,2.1-8.4c.3-.6.5-1.2.8-1.8-.5-.2-.9-.5-1.2-.8-.3.5-.8,1.1-1.2,1.7-1.8,2.3-4.3,4.7-6.3,5.8-4.3,2.4-6.9.8-8.4-1.8s-1.4-6.1,2.6-8.3c2-1.2,5.4-2,8.4-2.3.6-.2,1.2-.2,1.8-.2v-1.5c-.6,0-1.2-.2-1.8-.2-2.9-.5-6.3-1.2-8.4-2.3-4-2.3-4.1-5.7-2.6-8.3,1.5-2.8,4.3-4.3,8.4-1.8,2,1.1,4.4,3.5,6.3,5.8.5.6.8,1.1,1.2,1.7.5-.3.8-.6,1.2-.8-.3-.6-.5-1.1-.8-1.8-1.1-2.8-2.1-6-2.1-8.4,0-3.8,2-5.7,4.3-6.3v-.2c-.3-.8-.5-1.8-.3-2.6-4.3.8-6.7,4.4-6.7,9.6v1.4c-.6-.5-1.2-.8-1.8-1.1-5.7-2.8-10.4-.8-12.4,3.5-2.4,4.9-.3,9.5,4.9,12.1.3.2.6.3,1.1.5-.3.2-.8.3-1.1.5-5.2,2.6-7.3,7.2-4.9,12.1,2.1,4.3,6.7,6.3,12.4,3.5.6-.3,1.2-.6,1.8-1.1v1.4c0,5.8,3.1,9.8,8.7,9.8s8.7-3.2,8.7-9.6,0-1.1-.2-1.5c.6.5,1.2.8,1.8,1.1,5.7,2.8,10.4.8,12.4-3.5,2.6-4.7.5-9.3-4.7-11.9Z"/>
    <path class="cls-1" d="M69.7,36.1c1.4-2.3.6-5.4-1.7-6.7s-5.2-.8-6.6,1.4c1.4-2.3.5-5-1.8-6.4s-5.4-.6-6.7,1.7c-3.2,5.4,2.1,15.6,2.1,15.6,0,0,11.6-.3,14.7-5.5Z"/>
  </g>
</svg>