<?xml version="1.0" encoding="UTF-8"?>
<svg id="Layer_1" data-name="Layer 1" xmlns="http://www.w3.org/2000/svg" width="150" height="100" version="1.1" viewBox="0 0 150 100">
  <defs>
    <style>
      .cls-1 {
        fill: #99805d;
        stroke-width: 0px;
      }
    </style>
  </defs>
  <g>
    <g>
      <path class="cls-1" d="M142.3,32.1c-.6,0-1,.4-1.2,1h-65.8l-3.8-2-3.8,2H3.2c-.1-.6-.6-1-1.2-1s-1.2.5-1.2,1.2.5,1.2,1.2,1.2,1-.4,1.2-1h64.5s3.9,2,3.9,2h-35.4v.4h70.8v-.4h-35.4l3.9-2h0s65.7,0,65.7,0c.1.6.6,1,1.2,1s1.2-.5,1.2-1.2-.5-1.2-1.2-1.2Z"/>
      <polygon class="cls-1" points="107 30.6 36.2 30.6 36.2 31.1 71.6 31.1 71.6 31.1 107 31.1 107 30.6"/>
    </g>
    <path class="cls-1" d="M63.4,14v4.6c.2,0,.4,0,.6,0s.2,0,.5,0l-.2-.9v-2.2l1-1h1.5v-.4h-3.4Z"/>
    <polygon class="cls-1" points="97.1 8.3 97.1 8.7 99.8 8.7 100.2 9.2 100.2 16.7 98.4 18.9 97.1 18.9 97.1 19.3 103.8 19.3 103.8 18.9 102.4 18.9 100.6 16.7 100.6 9.6 108.5 19.3 110.2 19.3 101.1 8.3 97.1 8.3"/>
    <polygon class="cls-1" points="107.5 8.3 107.5 8.7 108.8 8.7 110.4 10.8 110.4 17.2 103.2 8.3 102 8.3 110.8 18.9 110.8 10.8 112.5 8.7 113.8 8.7 113.8 8.3 107.5 8.3"/>
    <path class="cls-1" d="M130.3,8.3h-3.5v10.9h4c4.2,0,6.4-2.2,6.4-5.5s-2.3-5.5-6.9-5.5ZM130.5,18.8h-1.5l-.9-.9v-8.2l.9-.9h1.2c2.8,0,3.5,1.6,3.5,5s-.4,5-3.3,5ZM133.3,18.4c0,0,.2-.1.2-.2,1.5-.9,2.3-2.5,2.3-4.4s-.5-2.8-1.5-3.7c-.3-.3-.6-.5-.9-.8,2,.7,3.1,2.2,3.1,4.4s-1,3.9-3.2,4.7Z"/>
    <polygon class="cls-1" points="122.7 8.3 122.7 8.7 124.2 8.7 125.2 9.7 125.2 17.9 124.2 18.9 122.7 18.9 122.7 19.3 126.1 19.3 126.1 8.3 122.7 8.3"/>
    <polygon class="cls-1" points="74.8 8.3 74.8 8.7 76.3 8.7 77.3 9.7 77.3 17.9 76.3 18.9 74.8 18.9 74.8 19.3 78.2 19.3 78.2 8.3 74.8 8.3"/>
    <polygon class="cls-1" points="6 8.3 6 8.7 7.5 8.7 8.5 9.7 8.5 17.9 7.5 18.9 6 18.9 6 19.3 9.4 19.3 9.4 8.3 6 8.3"/>
    <polygon class="cls-1" points="18.6 13.6 18.3 13.6 15.4 18.8 12.4 18.8 11.5 17.9 11.5 9.7 12.5 8.7 14.4 8.7 14.4 8.3 10.2 8.3 10.2 19.3 18.6 19.3 18.6 13.6"/>
    <path class="cls-1" d="M58.9,14v.4h1.6l.8,1v2.4c-.5.9-1.6,1.3-3.2,1.3-2.7,0-3.9-1.6-3.9-4.8s1.2-5.7,4.2-5.7,4.1,1.3,5.5,4h.3v-4.5h-.3l-.7.8h-.9c-1.4-.5-2.7-.9-4.1-.9-4.2,0-7.3,2.6-7.3,6s2.8,5.6,7,5.6,3.5-.6,4.8-.9v-4.7h-3.7ZM54.8,18.3c0,0-.1,0-.2,0-.4-.2-.7-.4-1-.7-.5-.4-.8-.9-1.1-1.5-.3-.7-.5-1.4-.5-2.2,0-1.9,1.1-3.5,2.7-4.3,0,0,0,0,.1,0-.4.4-.8.7-1.1,1.2-.3.4-.5.8-.6,1.1-.3.6-.4,1.2-.4,2,0,.8.1,1.5.4,2.2.3.6.7,1.3,1.4,2,0,0,.7.6.7.6,0,0,0,0-.3-.1Z"/>
    <polygon class="cls-1" points="27.7 8.3 27.7 8.7 29.2 8.7 30.2 9.7 30.2 17.9 29.2 18.9 27.7 18.9 27.7 19.3 31.1 19.3 31.1 8.3 27.7 8.3"/>
    <polygon class="cls-1" points="37.4 18.8 33.9 18.8 33.1 17.9 33.1 13.6 34.8 13.6 36.9 16 37.1 16 37.1 10.8 36.9 10.8 34.8 13.2 33.1 13.2 33.1 9.7 33.9 8.7 37.7 8.7 40.5 12.5 40.7 12.5 40.5 8.3 31.8 8.3 31.8 19.3 40.7 19.3 40.7 15.1 40.5 15.1 37.4 18.8"/>
    <g>
      <path class="cls-1" d="M144.1,9.4c0-.1,0-.2-.2-.4-.2-.3-.5-.4-.9-.4s-1,.2-1,.7.5.6.7.7c.1,0,.7.2.8.2.2,0,.9.3.9,1.1s-.5,1.2-1.5,1.2-.7-.1-.9-.2c-.3-.2-.5-.5-.5-.9l.4-.2c0,.2,0,.3,0,.5.2.4.6.5,1,.5.8,0,1.1-.4,1.1-.9s-.1-.5-.2-.5c-.2-.2-.4-.2-1-.3-.6-.1-1.2-.4-1.2-1.1s.7-1.1,1.3-1.1c1,0,1.3.7,1.4.9l-.4.2Z"/>
      <path class="cls-1" d="M149.2,12.5h-.4v-3.4s-1.3,3.4-1.3,3.4h-.3l-1.3-3.4v3.4s-.3,0-.3,0v-4h.5l1.4,3.4,1.3-3.4h.5v4Z"/>
    </g>
    <polygon class="cls-1" points="84.5 18.8 80.9 18.8 80.2 17.9 80.2 13.6 81.9 13.6 83.9 16 84.2 16 84.2 10.8 83.9 10.8 81.9 13.2 80.2 13.2 80.2 9.7 81 8.7 84.8 8.7 87.5 12.5 87.8 12.5 87.6 8.3 79 8.3 79 19.3 87.8 19.3 87.8 15.1 87.5 15.1 84.5 18.8"/>
  </g>
  <g>
    <path class="cls-1" d="M17.2,91.1c-.2,0-.3-.1-.3-.4,0-.3,0-.8,0-1.4v-1.2c0-1,0-1.2,0-1.4,0-.2,0-.3.2-.4,0,0,.1,0,.2,0,0,0,0,0,0,0s0,0-.1,0c-.3,0-1,0-1.1,0s-.7,0-1.1,0-.1,0-.1,0,0,0,.1,0c0,0,.2,0,.2,0,.2,0,.3.2.3.4,0,.2,0,.3,0,1.4h0c0,.2,0,.2,0,.2h-2.1s0,0,0,0h0c0-1,0-1.2,0-1.5,0-.2,0-.3.2-.4,0,0,.2,0,.2,0,0,0,.1,0,.1,0s0,0-.1,0c-.3,0-.8,0-1.1,0s-.7,0-1,0-.1,0-.1,0,0,0,.1,0c0,0,.1,0,.2,0,.2,0,.3.2.3.4,0,.2,0,.4,0,1.4v1.2c0,.6,0,1.1,0,1.4,0,.2,0,.4-.2.4,0,0-.1,0-.2,0,0,0-.1,0-.1,0s0,0,.1,0c.2,0,.9,0,1,0s.9,0,1.2,0,.1,0,.1,0,0,0-.1,0c0,0-.1,0-.3,0-.2,0-.3-.2-.3-.4,0-.3,0-.6,0-1.2v-.7s0,0,0,0h2.1s0,0,0,0v.5c0,.6,0,1,0,1.3,0,.2,0,.3-.2.4,0,0-.1,0-.2,0,0,0-.1,0-.1,0s0,0,.1,0c.3,0,.8,0,1,0s.8,0,1.2,0,.1,0,.1,0,0,0-.1,0c0,0-.2,0-.3,0Z"/>
    <path class="cls-1" d="M24.4,86.1c-2,0-2.8,1.3-2.8,2.6s.8,2.6,2.8,2.6,2.8-1.2,2.8-2.7-1.1-2.5-2.7-2.5ZM24.5,90.9c-1.1,0-1.7-1.2-1.7-2.5s.7-1.9,1.3-1.9c1.2,0,1.6,1.3,1.6,2.4,0,1.8-.9,2-1.3,2Z"/>
    <path class="cls-1" d="M35.8,86.2s0,0-.2,0c0,0-.2,0-.4,0h-2.9c-.3,0-.6,0-.7,0-.2,0-.2,0-.2,0s0,0,0,.2c0,.3-.1.6-.1.9,0,0,0,.1,0,.1s0,0,0-.1c0,0,0,0,0-.2,0-.2.2-.3.6-.3.3,0,.7,0,1,0v2.6c0,.6,0,1.1,0,1.4,0,.2,0,.3-.2.4,0,0-.1,0-.2,0,0,0-.1,0-.1,0s0,0,.2,0c.2,0,.9,0,1,0s.8,0,1.2,0,.2,0,.2,0,0,0-.1,0c-.1,0-.2,0-.3,0-.2,0-.2-.2-.3-.3,0-.3,0-.9,0-1.4v-2.6c.5,0,.9,0,1.1,0,.4,0,.5.2.5.4,0,0,0,0,0,.1,0,0,0,.1,0,.1s0,0,0-.1c0-.2,0-.8,0-.9,0-.2,0-.2,0-.2Z"/>
    <path class="cls-1" d="M43.2,90.2c0,.3-.1.5-.3.5-.2,0-.4,0-.6,0-.7,0-.8-.1-.8-.6,0-.3,0-.6,0-.9v-.5c0,0,0,0,0,0,.2,0,.8,0,.9,0,.3,0,.4.1.4.3,0,0,0,0,0,.2,0,0,0,.1,0,.1s0,0,0-.1,0-.4,0-.6c0-.3,0-.5,0-.6s0,0,0,0,0,0,0,0c0,.1-.2.1-.5.2-.2,0-.8,0-1,0,0,0,0,0,0,0v-1.5s0,0,0,0c.2,0,.8,0,1,0,.3,0,.4.1.4.3,0,0,0,.2,0,.2,0,0,0,0,0,0s0,0,0,0c0-.3,0-.6,0-.7,0-.2,0-.3,0-.3s0,0,0,0,0,0-.1,0c0,0-.2,0-.4,0s-1.7,0-1.9,0c-.3,0-.6,0-1,0s-.1,0-.1,0,0,0,.1,0c0,0,.2,0,.2,0,.2,0,.2.2.2.3,0,.2,0,.3,0,1.4v1.2c0,.4,0,.8,0,1.1,0,.4,0,.7-.2.7,0,0-.1,0-.2,0,0,0-.1,0-.1,0,0,0,0,0,.2,0,.4,0,.6,0,1,0,.7,0,1.2,0,2.1,0s.3,0,.3-.2c0-.1.1-.6.1-.9s0-.1,0-.1,0,0,0,.1Z"/>
    <path class="cls-1" d="M51.4,90.1c0,.3-.2.5-.3.6-.2.1-.4.1-.8.1-.6,0-.7,0-.8-.2-.1-.1,0-.6,0-1.3v-1.1c0-1.1,0-1.2,0-1.4,0-.2,0-.4.2-.4,0,0,.2,0,.2,0,0,0,.2,0,.2,0s0,0-.2,0c-.2,0-1.1,0-1.1,0-.3,0-.6,0-1,0s-.2,0-.2,0,0,0,.1,0c0,0,.2,0,.3,0,.2,0,.2.2.2.3,0,.2,0,.3,0,1.4v1.2c0,.4,0,.8,0,1.1,0,.5,0,.7-.3.7,0,0-.1,0-.2,0,0,0-.1,0-.1,0,0,0,0,0,.1,0,.4,0,.7,0,1,0,.7,0,1.3,0,2.2,0s.3,0,.4-.2c0-.2.1-.8.1-1s0-.1,0-.1,0,0,0,.1Z"/>
    <path class="cls-1" d="M57.3,88.2l-.3-.2c-.5-.3-.5-.6-.5-.8s.2-.6.7-.6.8.2.9.4c0,.2.1.3.1.4,0,.1,0,.1,0,.1,0,0,0,0,0-.2,0-.6,0-.7,0-.9,0,0,0,0,0,0-.1,0-.2,0-.3,0-.3,0-.5,0-.8,0-1.1,0-1.7.6-1.7,1.4s.2,1.1,1,1.6l.4.3c.6.4.6.6.6.9s-.2.6-.8.6-1-.3-1.1-.9c0,0,0-.1,0-.2,0,0,0-.1,0-.1s0,0,0,.2c0,.2,0,.4,0,1s0,.2.1.3c.3.1.6.2,1.1.2s.8,0,1.2-.3c.5-.3.7-.7.7-1.2,0-.7-.3-1.1-1.2-1.7Z"/>
    <path class="cls-1" d="M75.8,86.4c-.1,0-.3,0-.4,0-.1,0-.2.2-.2.3,0,.1,0,.2,0,.2,0,0,.2.2.2.5s-.3.5-.7.5-.5,0-.7,0c-.3,0-.4,0-.7,0-.6,0-1.1.1-1.6.5-.6.5-.7.9-.7,1.1s0,.4.2.5c.1.1.3.1.5,0,.1,0,.2-.2.3-.3,0,0,0-.1,0-.2-.1,0-.2-.3-.2-.5s.2-.7.8-.7.3,0,.4.1c.3.2.4.6.4,1.1s-.2,1.1-.5,1.4c-.4.4-.9.5-1.5.5-1,0-2.2-.5-2.2-2s.1-.9.5-1.2c.3-.2.6-.2.8-.3h.4c.1,0,.2,0,.2-.2,0,0,0-.1,0-.1-.5,0-1-.2-1-1.1s0-.5.2-.7c.1-.1.3-.2.5-.2s.7,0,.8.5c0,0,0,0,.1,0,0,0,.3-.2.3-.3,0-.1.1-.2.1-.3,0-.3-.3-.5-.8-.5s-.4,0-.7.2c-.4.2-.7.5-1,.9-.3.4-.3.7-.3,1s.1.6.2.7c0,0,0,.1,0,.2-.2.1-.5.3-.8.7-.3.4-.4.9-.4,1.2,0,1.2.9,2.2,2.5,2.2s1.2,0,2-.7c.8-.6,1.3-1.5,1.3-2.2s0-.5,0-.5c0-.1,0-.2,0-.2,0,0,.2,0,.4,0,.2,0,.9-.2,1.2-.5.3-.2.6-.6.6-1s-.1-.4-.3-.5Z"/>
    <path class="cls-1" d="M88.4,91.1c-.2,0-.3-.1-.7-.5-.4-.5-.9-1.2-1.3-1.8.6-.4.9-.8.9-1.3s-.3-.8-.6-1c-.3-.2-.7-.2-1.4-.2s-.9,0-1.1,0-.7,0-1,0-.1,0-.1,0,0,0,.1,0c0,0,.2,0,.3,0,.2,0,.2.1.3.4,0,.2,0,.3,0,1.4v1.2c0,.6,0,1.1,0,1.4,0,.2,0,.3-.2.4,0,0-.2,0-.2,0,0,0-.1,0-.1,0s0,0,.1,0c.2,0,.9,0,1,0s.8,0,1.2,0,.1,0,.1,0,0,0-.1,0c-.1,0-.2,0-.3,0-.2,0-.2-.2-.3-.4,0-.3,0-.6,0-1.1v-.3s0,0,0,0h.4s0,0,0,0c.1.2.3.5.6,1,.3.4.5.7.7.8.2.2.5.2,1.2.2h.6c0,0,.1,0,.1,0s0,0-.1,0c0,0,0,0-.2,0ZM85.9,88.7c-.1,0-.2.1-.4.1s-.4,0-.5,0c0,0,0,0,0,0v-1.8c0,0,0,0,0,0,0,0,.2,0,.3,0,.3,0,.9.2.9,1.2s-.1.7-.3.8Z"/>
    <path class="cls-1" d="M95.7,90.2c0,.3-.1.5-.3.5-.2,0-.4,0-.6,0-.7,0-.8-.1-.8-.6,0-.3,0-.6,0-.9v-.5c0,0,0,0,0,0,.2,0,.8,0,.9,0,.3,0,.4.1.4.3,0,0,0,0,0,.2,0,0,0,.1,0,.1s0,0,0-.1,0-.4,0-.6c0-.3,0-.5,0-.6s0,0,0,0,0,0,0,0c0,.1-.2.1-.5.2-.2,0-.8,0-1,0,0,0,0,0,0,0v-1.5s0,0,0,0c.2,0,.8,0,1,0,.3,0,.4.1.4.3,0,0,0,.2,0,.2,0,0,0,0,0,0s0,0,0,0c0-.3,0-.6,0-.7,0-.2,0-.3,0-.3s0,0,0,0,0,0-.1,0c0,0-.2,0-.4,0s-1.7,0-1.9,0c-.3,0-.6,0-1,0s-.1,0-.1,0,0,0,.1,0c0,0,.2,0,.2,0,.2,0,.2.2.2.3,0,.2,0,.3,0,1.4v1.2c0,.4,0,.8,0,1.1,0,.4,0,.7-.2.7,0,0-.1,0-.2,0-.1,0-.1,0-.1,0,0,0,0,0,.2,0,.4,0,.6,0,1,0,.7,0,1.2,0,2.1,0s.3,0,.3-.2c0-.1.1-.6.1-.9s0-.1,0-.1,0,0,0,.1Z"/>
    <path class="cls-1" d="M101.8,88.2l-.3-.2c-.5-.3-.5-.6-.5-.8s.2-.6.7-.6.8.2.9.4c0,.2.1.3.1.4,0,.1,0,.1,0,.1,0,0,0,0,0-.2,0-.6,0-.7,0-.9,0,0,0,0,0,0-.1,0-.2,0-.3,0-.3,0-.5,0-.8,0-1.1,0-1.7.6-1.7,1.4s.2,1.1,1,1.6l.4.3c.6.4.6.6.6.9s-.2.6-.8.6-1-.3-1.1-.9c0,0,0-.1,0-.2,0,0,0-.1,0-.1s0,0,0,.2c0,.2,0,.4,0,1s0,.2.1.3c.3.1.6.2,1.1.2s.8,0,1.2-.3c.5-.3.7-.7.7-1.2,0-.7-.3-1.1-1.2-1.7Z"/>
    <path class="cls-1" d="M110,86.1c-2,0-2.8,1.3-2.8,2.6s.8,2.6,2.8,2.6,2.8-1.2,2.8-2.7-1.1-2.5-2.7-2.5ZM110.1,90.9c-1.1,0-1.7-1.2-1.7-2.5s.7-1.9,1.3-1.9c1.2,0,1.6,1.3,1.6,2.4,0,1.8-.9,2-1.3,2Z"/>
    <path class="cls-1" d="M122.2,91.1c-.2,0-.3-.1-.7-.5-.4-.5-.9-1.2-1.3-1.8.6-.4.9-.8.9-1.3s-.3-.8-.6-1c-.3-.2-.7-.2-1.4-.2s-.9,0-1.1,0-.7,0-1,0-.1,0-.1,0,0,0,.1,0c0,0,.2,0,.3,0,.2,0,.2.1.3.4,0,.2,0,.3,0,1.4v1.2c0,.6,0,1.1,0,1.4,0,.2,0,.3-.2.4,0,0-.2,0-.2,0,0,0-.1,0-.1,0s0,0,.1,0c.2,0,.9,0,1,0s.8,0,1.2,0,.1,0,.1,0,0,0-.1,0c-.1,0-.2,0-.3,0-.2,0-.2-.2-.3-.4,0-.3,0-.6,0-1.1v-.3s0,0,0,0h.4s0,0,0,0c.1.2.3.5.6,1,.3.4.5.7.7.8.2.2.5.2,1.2.2h.6c0,0,.1,0,.1,0s0,0-.1,0c0,0,0,0-.2,0ZM119.7,88.7c-.1,0-.2.1-.4.1s-.4,0-.5,0c0,0,0,0,0,0v-1.8c0,0,0,0,0,0,0,0,.2,0,.3,0,.3,0,.9.2.9,1.2s-.1.7-.3.8Z"/>
    <path class="cls-1" d="M129.9,86.2s0,0-.2,0c0,0-.2,0-.4,0h-2.9c-.3,0-.6,0-.7,0-.2,0-.2,0-.2,0s0,0,0,.2c0,.3-.1.6-.1.9,0,0,0,.1,0,.1s0,0,0-.1c0,0,0,0,0-.2,0-.2.2-.3.6-.3.3,0,.7,0,1,0v2.6c0,.6,0,1.1,0,1.4,0,.2,0,.3-.2.4,0,0-.1,0-.2,0,0,0-.1,0-.1,0s0,0,.2,0c.2,0,.9,0,1,0s.8,0,1.2,0,.2,0,.2,0,0,0-.1,0c-.1,0-.2,0-.3,0-.2,0-.2-.2-.3-.3,0-.3,0-.9,0-1.4v-2.6c.5,0,.9,0,1.1,0,.4,0,.5.2.5.4,0,0,0,0,0,.1,0,0,0,.1,0,.1s0,0,0-.1c0-.2,0-.8,0-.9,0-.2,0-.2,0-.2Z"/>
    <path class="cls-1" d="M135.7,88.2l-.3-.2c-.5-.3-.5-.6-.5-.8s.2-.6.7-.6.8.2.9.4c0,.2.1.3.1.4,0,.1,0,.1,0,.1,0,0,0,0,0-.2,0-.6,0-.7,0-.9,0,0,0,0,0,0-.1,0-.2,0-.3,0-.3,0-.5,0-.8,0-1.1,0-1.7.6-1.7,1.4s.2,1.1,1,1.6l.4.3c.6.4.6.6.6.9s-.2.6-.8.6-1-.3-1.1-.9c0,0,0-.1,0-.2,0,0,0-.1,0-.1s0,0,0,.2c0,.2,0,.4,0,1s0,.2.1.3c.3.1.6.2,1.1.2s.8,0,1.2-.3c.5-.3.7-.7.7-1.2,0-.7-.3-1.1-1.2-1.7Z"/>
    <path class="cls-1" d="M43.6,52.8c0-.5,0-1-.2-1.5.6,0,1.1-.2,1.8-.2v-.6c-.6,0-1.3.2-2,.3-1.1-3-4.8-5.5-12-5.5-14.2,0-22.4,7.4-22.4,12s1.6,3.5,5,3.5c8,0,15.1-4.4,18.1-11.6h-.3c-2.2,4.4-13.2,11-18.6,11s-3.7-1.2-3.7-2.9c0-4.2,7.6-11.6,21.5-11.6s10.7,2.4,11.6,5.3c-12.4,2.9-17.1,19-31.2,19s-2.8-.2-2.8-.2l-.3.4c2.5.3,4.7.5,6.5.5,6.9,0,10.1-2.2,14-7.4.6-.8,1.2-1.7,1.9-2.6,1,.2,1.9.2,2.8.2,6.3,0,10.3-4.1,10.3-8.1ZM30.7,60.3c2.7-3.7,6.2-7.8,11.8-8.9,0,.4.1.8.1,1.1,0,3.9-4.1,7.9-10,7.9s-1.3,0-1.9-.1Z"/>
    <path class="cls-1" d="M134.8,66.2c-.3-2.9-2.5-5.1-5.7-4.7-1.5.2-3.3.9-5.3,2.4l.3.2c1.8-1.4,3.4-2,4.7-2.2,2.7-.3,4.4,1.5,4.6,4,.5,4.2-2.8,10.2-11,11.2-4.5.5-8.7-1.6-9.1-5.2-.2-1.6.9-4.4,2.7-6.4,4.1-4.7,10.1-11.3,13.5-14.6v-.2c-.1,0-1.7.3-3.1.5-2,2.5-4.8,5.4-7.8,8.8l-1.1,1.4c-.2,0-.4,0-.5,0-4.7,0-8.1,1.8-10.1,3.9-2.5,1.7-4.8,3.2-6.2,4-.8.5-2.1.9-3.1.9s-1.2-.2-1.2-.8,1.3-2.4,2.9-4c4-.6,6.8-2.7,6.8-3.7s-.2-.5-.8-.5c-3.6,0-6.7,2-8.5,4.2-4,2.7-7.1,4.8-8.1,4.8s-.5-.1-.5-.5c0-1.8,7-4.9,7-7.8s-.3-1.8-.3-2.7,0-.3.2-.4c.5-.2,1.4-.8,1.4-1.5s-.3-.5-.6-.5c-.6,0-1.5.6-1.5,1.8v.6c-.6.7-2.4,2.6-7.7,6.1-4.1,2.7-7.2,4.9-8.3,4.9s-.5-.1-.5-.5c0-1.8,7-4.9,7-7.8s-.3-1.8-.3-2.7,0-.3.2-.4c.5-.2,1.4-.8,1.4-1.5s-.3-.5-.6-.5c-.6,0-1.5.6-1.5,1.8v.6c-.6.7-2.4,2.6-7.6,6.1h0c-2.6,1.7-4.8,3.2-6.2,4.1-.8.5-2.1.9-3.1.9s-1.2-.2-1.2-.8,1.3-2.4,2.9-4c4-.6,6.8-2.7,6.8-3.7s-.2-.5-.8-.5c-5.8,0-10.2,5.3-10.2,7.8s.9,1.6,2.1,1.6,2.6-.4,3.6-1c1.6-.9,3.7-2.3,6-3.9h0c5.1-3.4,7.1-5.4,7.8-6.2,0,.6.2,1.1.2,1.3,0,1.4-7.4,5.5-7.4,8.4s.4,1.3,1,1.3c1.5,0,4.7-2.3,8.6-4.9h0c0,0,.1,0,.2-.1,0,0,0,0,0,0h0c4.9-3.3,6.9-5.2,7.5-6,0,.6.2,1.1.2,1.3,0,1.4-7.4,5.5-7.4,8.4s.4,1.3,1,1.3c1.5,0,4.4-2.1,8-4.5-.8,1.1-1.2,2.1-1.2,2.9,0,1.1.9,1.6,2.1,1.6s2.6-.4,3.6-1c1.5-.8,3.3-2.1,5.4-3.5-1,1.2-1.5,2.5-1.5,3.3,0,.7.3,1.1,1,1.1,1.8,0,5.7-2.5,8.3-4.4-1,1.8-1.3,3.7-1.1,5.3.5,4,4.3,6.6,10.1,5.9,9.2-1.1,12.5-6.9,12-11.3ZM105.1,61.5c.4,0,.5,0,.5.3,0,.8-3,2.9-6.2,3.4,2-1.9,4.4-3.7,5.7-3.7ZM75,61.5c.4,0,.5,0,.5.3,0,.8-3,2.9-6.2,3.4,2-1.9,4.4-3.7,5.7-3.7ZM105.8,70.3c-.2,0-.3,0-.3-.3,0-1.5,6.9-8.3,11.1-8.2.2,0,.4,0,.6,0l-2.9,3.6c0,0,0,.1-.1.2-2.7,1.9-6.8,4.7-8.4,4.7Z"/>
    <path class="cls-1" d="M67.2,64.1c-2.1.7-3.4,3.5-8.4,4,5.6-6.9,6.7-14.7,17.6-18.9.3-.1.6-.2.9-.3.2,0,.4,0,.6-.1,0,0,.2,0,.3,0,0,0,.2,0,.2,0,0,0,0,0,0,0,0,0,0,0,0,.1,0,0-.1.2-.2.2-.2.1-.3.3-.5.4-.3.3-.7.5-1,.8h0c.4-.2.8-.4,1.1-.7.2-.1.4-.3.5-.4,0,0,.2-.1.2-.2,0,0,0,0,.1-.2,0,0,0-.2,0-.3h0s0,0,0,0c-.2,0-.3,0-.4-.1-.1,0-.2,0-.3,0-.2,0-.4,0-.6.1-.3,0-.5.2-.7.2h0c-.1,0-.2,0-.4.1,0,0,0,0,0,0,0,0,0,0,0,0-8.7,3.2-11.8,9.4-17.7,16.7l-1.6,2c-.3-.2-.6-.7-.7-1.1l1.6-1.2c0-.5-.4-.6-.7-.5-.9,0-1.3.8-1.3,1.5-1.8,1.2-3.4,2.3-4.6,2.9-.8.5-2.1.9-3.1.9s-1.2-.2-1.2-.8,1.3-2.4,2.9-4c4-.6,6.8-2.7,6.8-3.7s-.2-.5-.8-.5c-2.9,0-5.5,1.3-7.3,3-4,2.7-9.2,6-10.2,6s-.5-.1-.5-.5c0-1.8,7-4.9,7-7.8s-.3-1.8-.3-2.7,0-.3.2-.4c.5-.2,1.4-.8,1.4-1.5s-.3-.5-.6-.5c-.6,0-1.5.6-1.5,1.8v.6c-.6.8-2.5,2.7-8,6.3l.2.2c5.1-3.4,7.1-5.4,7.8-6.2,0,.6.2,1.1.2,1.3,0,1.4-7.4,5.5-7.4,8.4s.4,1.3,1,1.3c1.4,0,5.9-2.9,9.7-5.4-1.3,1.4-2,2.9-2,3.8s.9,1.6,2.1,1.6,2.6-.4,3.6-1c1.3-.7,2.8-1.7,4.5-2.9,0,.5.3.9.7,1.3-4.2,5-9,9.7-16.5,10.5,0,0-.1,0-.2,0-.3,0-.6,0-.9,0-.3,0-.6,0-.9,0-.1,0-.3,0-.4,0-.1,0-.3,0-.4-.1-.3-.1-.3-.3-.2-.5.1-.2.4-.4.6-.5.2-.1.4-.2.6-.3.8-.4,1.4-.6,1.4-.6h0s-.6.1-1.4.4c-.2,0-.4.2-.7.3-.2.1-.5.3-.7.5,0,.1-.2.3-.1.5,0,.2.2.3.4.4.1,0,.3.1.5.2.2,0,.3,0,.5,0,.3,0,.6,0,.9,0,.3,0,.6,0,.9,0,.2,0,.3,0,.5,0,.1,0,.3,0,.4,0,6-.6,11.3-3.8,15.9-8.2.7-.7,1.4-1.4,2-2.2,5.6-.5,6.8-2.9,7.9-3.6,1.8-1.1,2.4-1.3.8-.7ZM55.7,61.5c.4,0,.5,0,.5.3,0,.8-3,2.9-6.2,3.4,2-1.9,4.4-3.7,5.7-3.7Z"/>
  </g>
</svg>