<?xml version="1.0" encoding="UTF-8"?>
<svg id="Layer_1" data-name="Layer 1" xmlns="http://www.w3.org/2000/svg" width="150" height="100" version="1.1" viewBox="0 0 150 100">
  <defs>
    <style>
      .cls-1 {
        fill: #8b6f4c;
        stroke-width: 0px;
      }
    </style>
  </defs>
  <path class="cls-1" d="M117,4.7c0,0,0-.2-.1-.2-.1-.2-.3-.3-.5-.3-.3,0-.6.1-.6.5s.3.4.4.4h.5c.3.2.6.5.6.8,0,.4-.3.8-1,.8-.2,0-.4,0-.6-.2-.2-.1-.3-.3-.4-.6h.2s0,0,0,.2c.1.2.4.4.6.3.5,0,.7-.3.7-.5,0-.1,0-.3-.2-.3-.2-.1-.4-.2-.6-.2-.4,0-.8-.2-.8-.7s.4-.7.8-.7c.4,0,.7.2.9.6h-.2Z"/>
  <path class="cls-1" d="M120.2,6.6h-.2v-2.2l-.8,2.2h-.2l-.8-2.2v2.2h-.2v-2.6h.3l.9,2.2.8-2.2h.3v2.6Z"/>
  <path class="cls-1" d="M147.3,44.3c-.7,0-1.2.5-1.4,1.1h-69v-1.7h34.2v-.5H38.8v.5h34.2v1.7H4c-.1-.7-.8-1.2-1.6-1.1s-1.2.8-1.1,1.6c.1.7.8,1.2,1.6,1.1.6,0,1-.5,1.1-1.1h69v1.7h-34.2v.5h72.4v-.5h-34.2v-1.7h69c.1.7.8,1.2,1.6,1.1s1.2-.8,1.1-1.6c-.1-.6-.7-1.1-1.3-1.1h0Z"/>
  <path class="cls-1" d="M38.2,31.9l.2-.2c.5-.6.8-1.3.7-2.1V6.2c0-.8-.2-1.5-.7-2.1l-.2-.2h2v27.9h-2ZM41.4,4h2l-.2.2c-.4.3-.6.8-.7,1.4v.7c0,0,0,24.5,0,24.5h8c.7,0,1.5-.2,2-.7l.3-.2h.2c0,.1-1,2-1,2h-10.6V4Z"/>
  <path class="cls-1" d="M72.1,34.1l-13.2-28.2-.3-.6c-.2-.5-.6-.9-1.1-1.2h-.3c0-.1,2.1-.1,2.1-.1l13.3,28.8-.6,1.4ZM60.5,4h2.3v.2c-.1,0-.3.3-.3.3,0,.2,0,.3,0,.5,0,.2,0,.4,0,.6l.2.5,10.5,22.7,8.3-23.2v-.3c0,0,.1-.4.1-.4,0-.1,0-.2,0-.4l-.2-.3v-.2c-.1,0,2.4,0,2.4,0l-.2.2c-.3.3-.5.7-.7,1.1l-.2.5-9.3,25.6-12.8-27.5Z"/>
  <path class="cls-1" d="M93.6,5.8c-.2-.3-.4-.6-.6-.9-.2-.3-.5-.6-.9-.8h-.2c0-.1,2-.1,2-.1l15.3,27.9h-2.2,0c.1-.3.2-.5.1-.7,0-.2,0-.4-.1-.5,0-.1-.1-.3-.2-.4l-6.3-11.2-7,11c-.2.3-.4.7-.4,1.1v.4c0,.1.2.2.2.3h.1c0,.1-3.2.1-3.2.1l.4-.3c.7-.6,1.3-1.2,1.8-2l7.4-11.7-6.6-12.1ZM95,4h2.3-.1c0,.1-.1.4-.1.4v.4c0,.2,0,.4,0,.5l.2.3,5,9,5.8-8.8c.2-.3.4-.7.4-1.1,0-.1,0-.2,0-.4l-.2-.3h-.1c0-.1,3.1-.1,3.1-.1l-.3.2c-.4.3-.8.7-1.1,1.1l-.3.4-6.6,10.1,7.9,14.3c.3.6.7,1.1,1.1,1.5l.4.3h-2l-15.3-27.9Z"/>
  <path class="cls-1" d="M52.2,64.1c0-.4,0-.8-.2-1.2.5,0,1-.1,1.5-.1v-.5c-.5,0-1.1.1-1.6.2-.9-2.5-4-4.6-10-4.6-11.8,0-18.6,6.2-18.6,10s1.4,2.9,4.2,2.9c6.6,0,12.6-3.7,15.1-9.6h-.3c-1.8,3.6-11,9.1-15.5,9.1s-3.1-1-3.1-2.4c0-3.5,6.3-9.6,17.9-9.6s8.9,2,9.6,4.4c-10.3,2.4-14.2,15.8-26,15.8-.8,0-1.6,0-2.3-.1l-.3.3c1.8.3,3.6.4,5.4.4,5.7,0,8.4-1.8,11.6-6.2.5-.7,1-1.4,1.5-2.2.8.1,1.5.2,2.3.2,5.3,0,8.6-3.4,8.6-6.7ZM43,70.4c-.5,0-1.1,0-1.6,0,2.3-3.1,5.1-6.5,9.8-7.4,0,.3,0,.6,0,.9,0,3.2-3.4,6.6-8.3,6.6Z"/>
  <path class="cls-1" d="M127,75.3c-.3-2.4-2-4.2-4.8-3.9-1.6.3-3.1.9-4.4,2l.2.2c1.1-.9,2.5-1.6,3.9-1.8,2.3-.3,3.6,1.3,3.9,3.3.4,3.5-2.3,8.5-9.2,9.3-3.7.4-7.2-1.4-7.6-4.3-.2-1.4.8-3.6,2.2-5.3,3.4-3.9,8.4-9.4,11.2-12.1h0c0-.1-1.4.1-2.5.3-1.6,2.1-4,4.5-6.5,7.3l-1,1.2h-.4c-3.1-.1-6.2,1.1-8.4,3.2-2.1,1.4-4,2.7-5.2,3.3-.8.4-1.7.7-2.6.7-.6,0-1-.2-1-.7s1.1-2,2.4-3.3c3.3-.5,5.6-2.2,5.6-3s-.2-.4-.7-.4c-2.7,0-5.3,1.3-7,3.4-3.3,2.2-5.9,4-6.8,4s-.4-.1-.4-.4c0-1.5,5.8-4.1,5.8-6.5s-.2-1.5-.2-2.2c0-.1,0-.2.2-.3.4-.2,1.2-.7,1.2-1.2s-.2-.4-.5-.4c-.7,0-1.3.7-1.2,1.5,0,0,0,0,0,0v.5c-.5.6-2,2.2-6.3,5h0c-3.4,2.2-6,4.1-6.9,4.1s-.4-.1-.4-.4c0-1.5,5.8-4.1,5.8-6.5s-.2-1.5-.2-2.2c0-.1,0-.2.2-.3.4-.2,1.2-.7,1.2-1.2s-.2-.4-.5-.4c-.7,0-1.3.7-1.2,1.5,0,0,0,0,0,0v.5c-.5.6-2,2.2-6.3,5h0c-2.1,1.4-4,2.7-5.2,3.4-.8.4-1.7.7-2.5.7-.6,0-1-.2-1-.7s1.1-2,2.4-3.3c3.3-.5,5.6-2.2,5.6-3s-.2-.4-.7-.4c-2.5,0-4.8,1.1-6.5,2.9-1.3.9-2.7,2.5-6,2.8,4.6-5.7,5.6-12.2,14.6-15.7.2,0,.5-.2.7-.2h.5c0-.1.2-.1.2-.1,0,0,.1,0,.2,0h0s0,0,0,0c0,0-.1.1-.2.2-.1.1-.3.2-.4.3-.3.2-.6.4-.9.7h0c.3-.2.6-.4.9-.6.1-.1.3-.2.4-.3,0,0,.1-.1.2-.2,0,0,0,0,0-.1,0,0,0-.2,0-.2h0c0,0-.2,0-.3,0h-.3c-.2,0-.4,0-.5,0-.3,0-.7.2-1,.3h0c-7.2,2.6-9.8,7.8-14.7,13.9l-1.4,1.6c-.3-.2-.5-.5-.6-.9l1.4-1c0-.4-.3-.5-.6-.4-.6,0-1.1.5-1.1,1.1,0,0,0,0,0,.1-1.5,1-2.9,1.9-3.8,2.4-.8.4-1.7.7-2.5.7-.6,0-1-.2-1-.7s1.1-2,2.4-3.3c3.3-.5,5.6-2.2,5.6-3s-.2-.4-.7-.4c-2.3,0-4.4.9-6.1,2.5-3.4,2.2-7.6,5-8.5,5s-.4-.1-.4-.4c0-1.5,5.8-4.1,5.8-6.5s-.2-1.5-.2-2.2c0-.1,0-.2.2-.3.4-.2,1.2-.7,1.2-1.2s-.2-.4-.5-.4c-.7,0-1.3.7-1.2,1.5,0,0,0,0,0,0v.5c-.5.6-2.1,2.2-6.6,5.2h.2c4.3-2.6,5.9-4.3,6.5-5,0,.5.1.9.1,1.1,0,1.1-6.2,4.6-6.2,7s.3,1.1.8,1.1c1.1,0,4.9-2.4,8.1-4.5-1,1.2-1.6,2.4-1.6,3.2s.8,1.3,1.7,1.3c1.1,0,2.1-.3,3-.8,1-.6,2.3-1.4,3.7-2.4,0,.4.3.8.6,1.1-3.5,4.1-7.5,8-13.7,8.7h-.3c-.2,0-.5,0-.7,0s-.5,0-.7,0h-.4c-.1,0-.2,0-.3,0-.2-.1-.3-.2-.1-.4.1-.2.3-.3.5-.4l.5-.3c.4-.2.8-.3,1.1-.5h0c-.4.1-.8.2-1.2.4-.2,0-.4.2-.6.3-.2.1-.4.2-.6.4-.1.1-.2.3-.1.4,0,.1.2.3.3.3.1,0,.3.1.4.1.1,0,.3,0,.4,0,.3,0,.5,0,.8,0,.2,0,.5,0,.7,0,.1,0,.3,0,.4,0h.4c5-.5,9.4-3.1,13.3-6.8.6-.6,1.2-1.2,1.7-1.8,2.7-.3,4.2-1.1,5.1-1.8-.5.7-.8,1.4-.9,2.2,0,1,.8,1.3,1.8,1.3,1.1,0,2.1-.3,3-.8,1.4-.7,3-1.9,5-3.2h0c4.3-2.8,5.9-4.5,6.5-5.1,0,.5.1.9.1,1.1,0,1.1-6.2,4.6-6.2,7s.3,1.1.8,1.1c1.3,0,3.9-1.9,7.1-4.1h0c4.3-2.8,5.9-4.5,6.5-5.1,0,.5.1.9.1,1.1,0,1.1-6.2,4.6-6.2,7s.3,1.1.8,1.1c1.2,0,3.7-1.7,6.7-3.7-.6.7-.9,1.5-1,2.4,0,1,.8,1.3,1.8,1.3,1.1,0,2.1-.3,3-.8,1.2-.7,2.7-1.7,4.5-2.9-.7.8-1.1,1.7-1.3,2.8,0,.6.3.9.8.9,1.4,0,4.7-2,6.9-3.6-.7,1.3-1,2.9-.9,4.4.4,3.3,3.6,5.5,8.4,4.9,7.7-.9,10.5-5.8,10.1-9.4ZM102.4,71.4c.3,0,.4,0,.4.2,0,.6-2.5,2.4-5.2,2.8,1.7-1.6,3.7-3,4.8-3ZM62.2,71.4c.3,0,.4,0,.4.2,0,.6-2.5,2.4-5.2,2.8,1.7-1.6,3.7-3,4.7-3ZM77.8,71.6c0,.6-2.5,2.4-5.2,2.8,1.7-1.6,3.7-3,4.8-3s.4,0,.4.2h0ZM102.9,78.7c-.2,0-.3,0-.3-.2,0-1.2,5.7-6.9,9.3-6.9h.5l-2.4,3v.2c-2.3,1.6-5.7,3.9-7.1,3.9h0Z"/>
  <path class="cls-1" d="M30,93.3h0v-1.1c0-.1,0-.2-.2-.3,0,0,0,0,0,0h-.2c0,0,0,0,0,0s0,0,.1,0h1.6c0,0,.1,0,.1,0s0,0,0,0h-.2c-.1,0-.2.1-.2.3s0,.3,0,1v1.9c0,.2,0,.2.2.3s.2,0,.2,0,0,0,0,0,0,0-.1,0h-1.6c0,0-.1,0-.1,0s0,0,0,0c0,0,0,0,.1,0,.1,0,.1-.1.2-.3s0-.5,0-1v-.4h-1.6v.5c0,.3,0,.6,0,.9,0,.1,0,.2.2.3,0,0,.1,0,.2,0,0,0,0,0,0,0s0,0,0,0h-1.6c0,0-.1,0-.1,0s0,0,0,0h.1c.1,0,.2-.1.2-.3s0-.5,0-1v-1.9c0-.2,0-.3-.2-.3h-.1c0,0,0,0,0,0s0,0,.1,0h1.6c0,0,.1,0,.1,0s0,0,0,0c0,0-.1,0-.2,0-.1,0-.2.1-.2.3s0,.4,0,1h0q0,.1,0,.1h1.5Z"/>
  <path class="cls-1" d="M34.3,93.6c0-1,.8-1.9,1.9-1.9,0,0,.2,0,.2,0,1,0,1.9.7,2,1.7,0,0,0,.1,0,.2,0,1.1-.7,2-1.8,2,0,0-.1,0-.2,0-1,.1-2-.7-2.1-1.7,0,0,0-.2,0-.2ZM37.4,93.7c0-.8-.3-1.7-1.2-1.7s-1,.3-1,1.4.4,1.8,1.2,1.8.9-.1.9-1.5h0Z"/>
  <path class="cls-1" d="M43.5,94.1v1c0,.2,0,.2.2.3h.2c0,0,.1,0,.1,0s0,0-.1,0h-1.6c0,0-.1,0-.1,0s0,0,0,0h.2c.1,0,.1-.1.2-.3s0-.6,0-1v-1.9h-.7c-.2,0-.4,0-.4.3,0,0,0,0,0,.1s0,0,0,0,0,0,0-.1c0-.2,0-.5.1-.7,0,0,0-.1,0-.1,0,0,.1,0,.2,0,.2,0,.4,0,.5,0h2.1c.1,0,.2,0,.3,0h.1s0,0,0,.2,0,.5,0,.6,0,0,0,0,0,0,0,0c0,0,0,0,0,0,0-.2,0-.3-.4-.3h-.8v1.9Z"/>
  <path class="cls-1" d="M48.1,93.2v-1.1c0-.2,0-.2-.2-.3h-.2c0,0,0,0,0,0s0,0,.1,0h2.1c0,0,.2,0,.3,0h0v.3c0,.1,0,.3,0,.5,0,0,0,0,0,0s0,0,0,0c0,0,0-.1,0-.2,0-.1,0-.2-.3-.2s-.6,0-.7,0c0,0,0,0,0,0v1.1s0,0,0,0h.7c.2,0,.3,0,.4-.1s0,0,0,0,0,0,0,0,0,.2,0,.4,0,.4,0,.4,0,0,0,0,0,0,0,0,0,0,0-.1,0-.2-.3-.2-.5,0-.7,0h0v1c0,.3,0,.4.6.4.2,0,.3,0,.4,0,.1,0,.2-.2.2-.4,0,0,0,0,0,0s0,0,0,.1c0,.2,0,.5,0,.7,0,.1,0,.1-.2.1h-2.2c0,0-.1,0-.1,0s0,0,0,0c0,0,0,0,.1,0,.1,0,.2-.2.2-.5v-1.8Z"/>
  <path class="cls-1" d="M54.8,94.1c0,.3,0,.6,0,1,0,0,.2.1.6.1.2,0,.4,0,.6,0,.1,0,.2-.2.3-.4,0,0,0,0,0,0s0,0,0,0c0,.2,0,.5-.1.7,0,.1,0,.1-.3.1h-2.4c0,0-.1,0-.1,0s0,0,0,0c0,0,.1,0,.2,0,.2,0,.2-.1.2-.5v-2.7c0-.2,0-.2-.2-.3,0,0-.1,0-.2,0,0,0-.1,0-.1,0s0,0,.1,0h1.5c0,0,.1,0,.1,0s0,0-.1,0h-.2c-.1,0-.2.1-.2.3s0,.3,0,1.1v.8Z"/>
  <path class="cls-1" d="M59.3,95.4c0,0-.1,0-.1-.2,0-.2,0-.5,0-.7,0,0,0-.1,0-.1s0,0,0,0h0c0,.5.4.8.8.8.5,0,.6-.2.6-.4s0-.4-.5-.7l-.3-.2c-.6-.4-.8-.8-.8-1.2s.5-1,1.2-1c.2,0,.4,0,.6,0h.2c0,0,0,0,0,.1v.7c0,0,0,.1,0,.1s0,0,0,0c0,0,0-.2,0-.3-.2-.2-.4-.3-.7-.3-.4,0-.5.2-.5.4s0,.4.4.6l.3.2c.7.5.9.8.9,1.2,0,.4-.2.7-.5.9-.3.1-.6.2-.8.2-.3,0-.5,0-.8-.1Z"/>
  <path class="cls-1" d="M68.8,93.5c.2-.2.4-.4.6-.5,0,0,0,0,0-.1-.1-.2-.2-.3-.2-.5,0-.2,0-.5.2-.7.2-.3.4-.5.7-.6.2,0,.3-.2.5-.2.4,0,.6.2.6.4,0,0,0,.1,0,.2,0,0-.2.2-.2.2,0,0,0,0,0,0,0,0,0,0,0,0,0-.3-.3-.4-.6-.4-.1,0-.3,0-.4.2-.1.1-.2.3-.2.5,0,.4.3.8.7.8,0,0,0,0,0,0h0c0,.2,0,.2-.2.2h-.3c-.2,0-.4,0-.6.2-.2.2-.4.6-.4.9,0,.8.6,1.5,1.5,1.5,0,0,.1,0,.2,0,.4,0,.8-.1,1.1-.4.3-.3.4-.6.4-1,0-.3,0-.6-.3-.8,0,0-.2,0-.3,0-.3,0-.6.2-.6.5,0,0,0,0,0,0,0,.1,0,.3.1.4,0,0,0,0,0,.1,0,0-.1.1-.2.2-.1,0-.2,0-.3,0-.1,0-.2-.2-.2-.4,0-.3.3-.6.5-.8.4-.3.8-.4,1.2-.4h1c.3,0,.5-.1.5-.3,0-.1,0-.3-.1-.4,0,0,0-.1,0-.2,0,0,0-.2.2-.2,0,0,.2,0,.3,0,.1,0,.2.2.2.3,0,.3-.2.6-.5.8-.3.2-.6.3-.9.4h-.3c0,0,0,0,0,.1,0,.1,0,.3,0,.4,0,.7-.4,1.2-1,1.6-.4.3-.9.5-1.5.5-.9.1-1.7-.5-1.8-1.4,0,0,0-.1,0-.2,0-.3.1-.7.3-.9Z"/>
  <path class="cls-1" d="M80.1,93.2v-1c0-.2,0-.3-.2-.3h-.2c0,0,0,0,0,0s0,0,.1,0h1.5c.3,0,.7,0,1,.2.3.1.5.4.4.7,0,.4-.3.8-.7,1,.3.4.6.9,1,1.3.3.3.4.4.5.4h.1c0,0,0,0,0,0s0,0,0,0h-.4c-.3,0-.6,0-.9-.2-.2-.2-.4-.4-.5-.6-.2-.4-.3-.6-.4-.7,0,0,0,0,0,0h-.4v1.1c0,.2,0,.2.2.3,0,0,.1,0,.2,0,0,0,0,0,0,0s0,0-.1,0h-1.6c0,0,0,0,0,0s0,0,0,0c0,0,.1,0,.2,0,0,0,.1-.1.1-.3s0-.5,0-1v-.9ZM80.9,93.5s0,0,0,0c.1,0,.2,0,.4,0,.1,0,.2,0,.3,0,.1-.2.2-.4.2-.6,0-.7-.4-.9-.7-.9,0,0-.1,0-.2,0h0c0,0,0,1.4,0,1.4Z"/>
  <path class="cls-1" d="M86.6,93.2v-1.1c0-.2,0-.2-.2-.3h-.2c0,0,0,0,0,0s0,0,.1,0h2.1c0,0,.2,0,.3,0h0v.3c0,.1,0,.3,0,.5,0,0,0,0,0,0s0,0,0,0c0,0,0-.1,0-.2,0-.1,0-.2-.3-.2s-.6,0-.7,0c0,0,0,0,0,0v1.1s0,0,0,0h.7c.2,0,.3,0,.4-.1s0,0,0,0,0,0,0,0,0,.2,0,.4,0,.4,0,.4,0,0,0,0,0,0,0,0c0,0,0,0,0-.1,0-.1,0-.2-.3-.2h-.7v1c0,.3,0,.4.6.4.2,0,.3,0,.5,0,.1,0,.2-.2.2-.4,0,0,0,0,0,0s0,0,0,.1c0,.2,0,.5,0,.7,0,.1,0,.1-.3.1h-2.2c0,0-.1,0-.1,0s0,0,0,0c0,0,0,0,.1,0,.1,0,.2-.2.2-.5v-1.8Z"/>
  <path class="cls-1" d="M92,95.4c0,0-.1,0-.1-.2,0-.2,0-.5,0-.7,0,0,0-.1,0-.1s0,0,0,0c0,0,0,0,0,.1,0,.4.4.6.8.6.5,0,.6-.2.6-.4s0-.4-.5-.7l-.3-.2c-.6-.4-.8-.8-.8-1.2s.5-1,1.2-1c.2,0,.4,0,.6,0h.2c0,0,0,0,0,.1v.7c0,0,0,.1,0,.1s0,0,0,0c0-.1,0-.2,0-.3-.2-.2-.4-.3-.7-.3-.4,0-.5.2-.5.4s0,.4.4.6l.3.2c.7.5.9.8.9,1.2,0,.4-.2.7-.5.9-.3.1-.6.2-.8.2-.3,0-.5,0-.8-.1Z"/>
  <path class="cls-1" d="M97.2,93.6c0-1.1.8-1.9,1.9-1.9,0,0,.1,0,.2,0,1,0,1.9.7,2,1.7,0,0,0,.1,0,.2,0,1.1-.9,2.1-2,2.1s-2.1-.9-2.1-2h0ZM100.4,93.7c0-.8-.3-1.7-1.2-1.7s-1,.3-1,1.4.4,1.8,1.2,1.8.9-.1.9-1.5h0Z"/>
  <path class="cls-1" d="M104.9,93.2v-1c0-.2,0-.3-.2-.3h-.2c0,0,0,0,0,0s0,0,.1,0h1.5c.3,0,.7,0,1,.2.3.1.5.4.4.7,0,.4-.3.8-.7,1,.3.4.6.9,1,1.3.3.3.4.4.5.4h.1c0,0,0,0,0,0s0,0,0,0h-.4c-.3,0-.6,0-.9-.2-.2-.2-.4-.4-.5-.6-.2-.4-.3-.6-.4-.7,0,0,0,0,0,0h-.4v1.1c0,.2,0,.2.2.3,0,0,.1,0,.2,0,0,0,0,0,0,0s0,0-.1,0h-1.6c0,0,0,0,0,0s0,0,0,0c0,0,.1,0,.2,0,.1,0,.1-.1.1-.3s0-.5,0-1v-.9ZM105.8,93.5s0,0,0,0c.1,0,.3,0,.4,0,.1,0,.2,0,.3,0,.1-.2.2-.4.2-.6,0-.7-.4-.9-.7-.9,0,0-.1,0-.2,0h0c0,0,0,1.4,0,1.4Z"/>
  <path class="cls-1" d="M112.7,94.1v1c0,.2,0,.2.2.3h.2c0,0,0,0,0,0s0,0-.1,0h-1.6c0,0-.1,0-.1,0s0,0,.1,0h.2c.1,0,.1-.1.2-.3s0-.6,0-1v-1.9h-.7c-.2,0-.4,0-.4.3,0,0,0,0,0,.1,0,0,0,0,0,0s0,0,0-.1c0-.2,0-.5.1-.7,0,0,0-.1,0-.1,0,0,.1,0,.2,0,.2,0,.4,0,.5,0h2.1c.1,0,.2,0,.3,0h.1s0,0,0,.2,0,.5,0,.6,0,0,0,0,0,0,0,0c0,0,0,0,0,0,0-.2,0-.3-.4-.3h-.8v1.9Z"/>
  <path class="cls-1" d="M116.9,95.4c0,0-.1,0-.1-.2,0-.2,0-.5,0-.7,0,0,0-.1,0-.1s0,0,0,0c0,0,0,0,0,.1,0,.4.4.6.8.6.5,0,.6-.2.6-.4s0-.4-.5-.7l-.3-.2c-.6-.4-.8-.8-.8-1.2s.5-1,1.2-1c.2,0,.4,0,.6,0h.2c0,0,0,0,0,.1v.7c0,0,0,.1,0,.1s0,0,0,0c0-.1,0-.2,0-.3-.2-.2-.4-.3-.7-.3-.4,0-.5.2-.5.4s0,.4.4.6l.3.2c.7.5.9.8.9,1.2,0,.4-.2.7-.5.9-.3.1-.6.2-.8.2-.3,0-.5,0-.8-.1Z"/>
  <circle class="cls-1" cx="56.3" cy="30.6" r="1.3"/>
  <path class="cls-1" d="M79.1,30.6c0,.7-.6,1.4-1.4,1.4s-1.4-.6-1.4-1.4.6-1.4,1.4-1.4c0,0,0,0,0,0,.7,0,1.3.6,1.3,1.4Z"/>
  <circle class="cls-1" cx="114.9" cy="30.6" r="1.3"/>
</svg>